# xmcd CD database file
#
# Track frame offsets:
#	150
#	22645
#	44085
#	63365
#	85172
#	103797
#	126192
#	138102
#	153290
#	176587
#	198340
#	212997
#	235337
#	258990
#	280917
#	306442
#
# Disc length: 4291 seconds
#
# Revision: 0
# Processed by: cddbd v1.5.1PL0 Copyright (c) Steve Scherf et al.
# Submitted via: CDex 1.51
#
DISCID=e010c110
DTITLE=w-inds. - w-inds. -Best tracks-
DYEAR=1900
DGENRE=Pop
TTITLE0=Forever Memories
TTITLE1=Feel The Fate
TTITLE2=Paradox
TTITLE3=New-Age Dreams
TTITLE4=Try Your Emotion
TTITLE5=Another Days
TTITLE6=Somehow
TTITLE7=Because Of You
TTITLE8=New Paradise
TTITLE9=This Time-願い-
TTITLE10=SUPER LOVER-I Need You Tonight-
TTITLE11=Love Is Message
TTITLE12=Long Road
TTITLE13=Dedicated To You
TTITLE14=Pieces
TTITLE15=キレイだ
EXTD=
EXTT0=
EXTT1=
EXTT2=
EXTT3=
EXTT4=
EXTT5=
EXTT6=
EXTT7=
EXTT8=
EXTT9=
EXTT10=
EXTT11=
EXTT12=
EXTT13=
EXTT14=
EXTT15=
PLAYORDER=
